<svg xmlns="http://www.w3.org/2000/svg" width="17" height="21" viewBox="0 0 17 21">
    <g fill="none" fill-rule="evenodd">
        <path fill="#B2E3FF" d="M8.34 20.4l.097-.001a2.337 2.337 0 0 0 1.507-.618l5.976-5.501a2.35 2.35 0 1 0-3.184-3.46L8.34 14.869l-4.397-4.047A2.35 2.35 0 0 0 .758 14.28l5.977 5.501c.43.395.966.599 1.507.618.032.002.065 0 .097 0"/>
        <path fill="#CDEDFF" d="M8.34 10.2l.097-.001a2.337 2.337 0 0 0 1.507-.618L15.92 4.08A2.35 2.35 0 1 0 12.736.62L8.34 4.669 3.942.621A2.35 2.35 0 0 0 .758 4.08l5.977 5.501c.43.395.966.599 1.507.618.032.002.065 0 .097 0"/>
    </g>
</svg>
